<?xml version="1.0" encoding="utf-8"?>
<!-- Generator: Adobe Illustrator 22.1.0, SVG Export Plug-In . SVG Version: 6.00 Build 0)  -->
<svg version="1.1" id="Слой_1" xmlns="http://www.w3.org/2000/svg" xmlns:xlink="http://www.w3.org/1999/xlink" x="0px" y="0px"
	 viewBox="0 0 841.9 595.3" style="enable-background:new 0 0 841.9 595.3;" xml:space="preserve">
<style type="text/css">
	.st0{fill:#FFFFFF;}
</style>
<g>
	<g>
		<path class="st0" d="M381.1,309.4c0-7.7,0-15.4,0-23c26.7,0,53.4,0,80.2,0c0,7.7,0,15.4,0,23C434.6,309.4,407.8,309.4,381.1,309.4
			z M444.3,294.7c-0.7-0.4-1.2-1-1.8-1.1c-1.4-0.2-2.7-0.1-4.1-0.1c-0.7,0-1.5,0-2.2-0.1c-0.8-0.1-1.5-0.5-2.2-0.5
			c-2.4,0-4.9,0.1-7.3,0.1c-5.8,0-11.7,0-17.5,0c-2.5,0-5.1,0-7.6,0c-4.2,0-8.5-0.1-12.7,0c-0.9,0-1.9,1-2.7,1.8
			c-0.3,0.3-0.1,1.1,0,1.7c0,1.1,0,2.1,0.1,3.2c0,0.3,0.5,0.6,0.6,1c0.3,1.7,1.2,2.5,2.9,2.5c5.1,0,10.1-0.2,15.2-0.2
			c5.2,0,10.4,0.2,15.6,0.1c3.7,0,7.3-0.3,11-0.4c1.5-0.1,3.1,0,4.6-0.1c1.7-0.1,3.4-0.3,5.1-0.5c1.4-0.2,2.9-0.5,4.3-0.8
			c0.6-0.1,1.1-0.5,1.7-0.7c0-0.1,0-0.2-0.1-0.2c-0.5-0.1-1.1-0.2-1.6-0.3c0-0.1,0-0.1,0-0.2c0.8-0.1,1.5-0.3,2.3-0.4
			c0-0.1,0-0.2,0-0.3c-0.3-0.1-0.6-0.2-0.8-0.3c3.2-0.4,6.5-0.9,9.7-1.3c0-0.1,0.1-0.2,0.1-0.3c-0.6-0.3-1.3-0.9-1.9-1
			c-2.3-0.3-4.6-0.3-7-0.5c-1.9-0.1-3.7-0.3-5.6-0.5c0-0.1,0-0.2,0-0.4C443,294.8,443.6,294.8,444.3,294.7z"/>
		<path d="M444.3,294.7c-0.7,0.1-1.3,0.1-1.9,0.2c0,0.1,0,0.2,0,0.4c1.9,0.2,3.7,0.4,5.6,0.5c2.3,0.2,4.6,0.3,7,0.5
			c0.7,0.1,1.3,0.6,1.9,1c0,0.1-0.1,0.2-0.1,0.3c-3.2,0.4-6.5,0.9-9.7,1.3c0.2,0.1,0.5,0.2,0.8,0.3c0,0.1,0,0.2,0,0.3
			c-0.8,0.1-1.5,0.3-2.3,0.4c0,0.1,0,0.1,0,0.2c0.5,0.1,1.1,0.2,1.6,0.3c0,0.1,0,0.2,0.1,0.2c-0.5,0.3-1.1,0.6-1.7,0.7
			c-1.4,0.3-2.9,0.6-4.3,0.8c-1.7,0.2-3.4,0.4-5.1,0.5c-1.5,0.1-3.1,0-4.6,0.1c-3.7,0.1-7.3,0.4-11,0.4c-5.2,0-10.4-0.1-15.6-0.1
			c-5.1,0-10.1,0.1-15.2,0.2c-1.7,0-2.5-0.8-2.9-2.5c-0.1-0.4-0.6-0.6-0.6-1c-0.1-1.1-0.1-2.1-0.1-3.2c0-0.6-0.2-1.4,0-1.7
			c0.8-0.8,1.8-1.8,2.7-1.8c4.2-0.2,8.5-0.1,12.7,0c2.5,0,5.1,0,7.6,0c5.8,0,11.7,0,17.5,0c2.4,0,4.9-0.1,7.3-0.1
			c0.7,0,1.5,0.4,2.2,0.5c0.7,0.1,1.5,0.1,2.2,0.1c1.4,0,2.8,0,4.1,0.1C443,293.7,443.6,294.3,444.3,294.7z M409.1,296.7
			c1.3,0,2.5,0,3.7,0c0,1.4,0,2.6,0,3.8c0.3,0,0.6,0,0.7,0c0.2-1.3,0.3-2.5,0.4-3.8c0.3-0.1,0.7-0.2,1-0.3c0,0,0-0.1,0-0.1
			c-2.2,0-4.4,0-6.6,0c0,1.5,0,2.8,0,4.2c1.1,0,2,0,3,0c0-0.1,0-0.2,0-0.2c-0.7-0.1-1.4-0.1-2.1-0.2c0-0.6,0-1.1,0-1.6
			c0.5-0.1,0.9-0.1,1.3-0.1c0,0,0-0.1,0-0.1c-0.4-0.1-0.8-0.1-1.3-0.2C409.1,297.5,409.1,297.1,409.1,296.7z M421.8,296.2
			c-0.4,1.8-0.8,3.5-1.3,5.5c0.8-1.5,3.6-1.6,4.4-0.4c-0.1-1.4-0.2-2.8-0.3-4.2c0-0.3-0.1-0.6-0.1-0.9
			C423.4,296.2,422.4,296.2,421.8,296.2z M439,297.4c0.1,0,0.2,0,0.3,0.1c0,1,0,2,0,3c0.1,0.1,0.2,0.1,0.3,0.2
			c0.2-0.2,0.5-0.5,0.5-0.7c0.1-1.2,0-2.4,0-3.8c-2.1,0.4-1.8,2.7-3.4,3.8c0.2-1.4,0.3-2.5,0.5-4c-0.5,0.4-0.9,0.6-1,0.9
			c-0.5,1.1-0.2,2.2,0.4,3.2c0.4,0.7,0.7,0.7,1.1,0C438,299.2,438.5,298.3,439,297.4z M419.1,300.7c-0.6-1.5-1-2.7-1.5-3.9
			c-0.3-0.8-0.8-0.9-1.4-0.2c-0.4,0.5-0.8,1-1,1.6c-0.3,0.7-0.7,2-0.4,2.2c0.8,0.7,1.7-0.1,2.4-0.6c0.1,0,0.1-0.2,0.1-0.4
			c-0.6,0.2-1.2,0.3-1.7,0.4c-0.1-0.1-0.2-0.2-0.2-0.3c0.4-0.9,0.8-1.8,1.2-2.7C417.7,298,417.1,300.1,419.1,300.7z M403.4,300.7
			c-0.6-1.5-1-2.8-1.5-4c-0.3-0.7-0.8-0.8-1.2-0.3c-0.7,1-1.3,2.1-1.9,3.3c-0.3,0.6,0.1,1.1,0.8,0.9c0.7-0.2,1.3-0.6,2-0.8
			c0-0.1-0.1-0.2-0.1-0.3c-0.5,0.2-1.1,0.3-1.6,0.5c-0.1-0.1-0.2-0.2-0.3-0.3c0.4-0.9,0.8-1.8,1.2-2.8
			C401.9,298,401.4,300.1,403.4,300.7z M403.7,300.6c1.6-0.1,0.4-1.6,1.1-2.1c0.6,0,1.2,0,1.9,0c-0.1,0.7-0.2,1.4-0.3,2
			c0.1,0,0.2,0.1,0.3,0c0.7-0.5,1.2-3.5,0.7-4.1c-0.1-0.1-0.3-0.2-0.4-0.2c-0.2,0.1-0.4,0.2-0.4,0.3c-0.1,0.5-0.1,0.9-0.1,1.5
			c-0.7,0-1.3,0-1.9,0c-0.3-1.7-0.3-1.7-1-1.7C403.7,297.7,403.7,299.1,403.7,300.6z M394.6,300.5c1.2,0,1.6-1.2,1.1-3.8
			c0.6,0,1.3,0,2,0c0,1.3,0,2.6,0,4.2c0.5-0.4,0.9-0.6,0.9-0.8c0.1-1.3,0-2.5,0-3.8c-1.4,0-2.5,0-3.3,0
			C395.1,297.7,394.9,299.1,394.6,300.5z M390.4,296.3c0,1.3,0,2.4,0,3.6c0,0.2,0.3,0.5,0.4,0.7c0.1-0.2,0.4-0.5,0.4-0.7
			c0-1.1,0-2.1,0-3.2c0.8,0,1.3,0,2,0c0,1.2,0,2.2,0,3.3c0,0.2,0.3,0.4,0.4,0.5c0.1-0.2,0.4-0.3,0.4-0.5c0-1.3,0-2.5,0-3.8
			C392.8,296.3,391.7,296.3,390.4,296.3z M435.4,296.5c0-0.1,0-0.2,0.1-0.2c-1,0-1.9,0-2.9,0c0,1.4,0,2.8,0,4.2c1,0,2,0,3,0
			c0-0.1,0-0.2,0-0.3c-0.7-0.1-1.4-0.1-2.1-0.2c0-0.6,0-1.1,0-1.6c0.5-0.1,0.9-0.1,1.3-0.1c0,0,0-0.1,0-0.1
			c-0.4-0.1-0.8-0.1-1.3-0.2c0-0.5,0-0.9,0-1.3C434.2,296.6,434.8,296.6,435.4,296.5z M425.2,300.4c1,0,2,0,3,0c0-0.1,0-0.2,0-0.2
			c-0.7,0-1.4-0.1-2.1-0.2c0-0.6,0-1.1,0-1.6c0.5-0.1,0.9-0.1,1.6-0.2c-0.8-0.2-1.2-0.2-1.6-0.3c0-0.4,0-0.8,0-1.3
			c0.8-0.1,1.4-0.1,2.1-0.2c0-0.1,0-0.1,0-0.2c-1,0-1.9,0-3,0C425.2,297.7,425.2,299.1,425.2,300.4z M430.4,300.6
			c0.2,0,0.3,0,0.5-0.1c0-1.3,0-2.5,0-3.8c0.5-0.1,0.9-0.2,1.2-0.2c0-0.1,0-0.1,0-0.2c-1.1,0-2.2,0-3.3,0c0,0.1,0,0.1,0,0.2
			c0.4,0.1,0.7,0.2,1,0.2C430.3,298,429.3,299.5,430.4,300.6z"/>
		<path class="st0" d="M409.1,296.7c0,0.5,0,0.8,0,1.3c0.5,0.1,0.9,0.1,1.3,0.2c0,0,0,0.1,0,0.1c-0.4,0-0.8,0.1-1.3,0.1
			c0,0.5,0,1,0,1.6c0.7,0.1,1.4,0.1,2.1,0.2c0,0.1,0,0.2,0,0.2c-1,0-1.9,0-3,0c0-1.3,0-2.7,0-4.2c2.2,0,4.4,0,6.6,0c0,0,0,0.1,0,0.1
			c-0.3,0.1-0.7,0.2-1,0.3c-0.1,1.3-0.3,2.5-0.4,3.8c0,0-0.4,0-0.7,0c0-1.3,0-2.5,0-3.8C411.5,296.7,410.4,296.7,409.1,296.7z"/>
		<path class="st0" d="M421.8,296.2c0.6,0,1.6,0,2.7,0c0,0.3,0.1,0.6,0.1,0.9c0.1,1.4,0.2,2.8,0.3,4.2c-0.9-1.2-3.6-1.1-4.4,0.4
			C420.9,299.7,421.3,298.1,421.8,296.2z M423.6,300.1c0-1.2,0-2.2,0-3.4c-0.6,0-1.1,0-1.5,0c0,1.2,0,2.3,0,3.4
			C422.5,300.1,423,300.1,423.6,300.1z"/>
		<path class="st0" d="M439,297.4c-0.5,0.9-0.9,1.7-1.4,2.6c-0.4,0.7-0.7,0.7-1.1,0c-0.5-1-0.9-2.1-0.4-3.2c0.1-0.3,0.6-0.5,1-0.9
			c-0.2,1.5-0.3,2.6-0.5,4c1.6-1,1.3-3.4,3.4-3.8c0,1.4,0,2.6,0,3.8c0,0.3-0.3,0.5-0.5,0.7c-0.1-0.1-0.2-0.1-0.3-0.2c0-1,0-2,0-3
			C439.1,297.5,439,297.5,439,297.4z"/>
		<path class="st0" d="M419.1,300.7c-2-0.6-1.5-2.7-2.7-3.8c-0.4,0.9-0.8,1.8-1.2,2.7c0.1,0.1,0.2,0.2,0.2,0.3
			c0.6-0.1,1.1-0.3,1.7-0.4c-0.1,0.2-0.1,0.3-0.1,0.4c-0.8,0.5-1.6,1.3-2.4,0.6c-0.3-0.3,0.2-1.5,0.4-2.2c0.2-0.6,0.6-1.1,1-1.6
			c0.5-0.7,1.1-0.6,1.4,0.2C418.1,298,418.6,299.2,419.1,300.7z"/>
		<path class="st0" d="M403.4,300.7c-2-0.6-1.5-2.7-2.6-3.9c-0.4,1-0.8,1.9-1.2,2.8c0.1,0.1,0.2,0.2,0.3,0.3
			c0.5-0.2,1.1-0.3,1.6-0.5c0,0.1,0.1,0.2,0.1,0.3c-0.7,0.3-1.3,0.7-2,0.8c-0.7,0.2-1.1-0.3-0.8-0.9c0.5-1.1,1.2-2.3,1.9-3.3
			c0.3-0.5,0.9-0.4,1.2,0.3C402.4,297.9,402.9,299.2,403.4,300.7z"/>
		<path class="st0" d="M403.7,300.6c0-1.5,0-2.9,0-4.2c0.7-0.1,0.7-0.1,1,1.7c0.6,0,1.2,0,1.9,0c0-0.5,0-1,0.1-1.5
			c0-0.1,0.2-0.3,0.4-0.3c0.1,0,0.3,0.1,0.4,0.2c0.5,0.7-0.1,3.6-0.7,4.1c0,0-0.2,0-0.3,0c0.1-0.6,0.2-1.3,0.3-2c-0.7,0-1.3,0-1.9,0
			C404.1,299,405.3,300.4,403.7,300.6z"/>
		<path class="st0" d="M394.6,300.5c0.3-1.4,0.5-2.7,0.8-4.2c0.8,0,1.9,0,3.3,0c0,1.3,0,2.5,0,3.8c0,0.2-0.4,0.4-0.9,0.8
			c0-1.6,0-2.8,0-4.2c-0.7,0-1.4,0-2,0C396.2,299.3,395.8,300.4,394.6,300.5z"/>
		<path class="st0" d="M390.4,296.3c1.3,0,2.4,0,3.7,0c0,1.3,0,2.6,0,3.8c0,0.2-0.2,0.3-0.4,0.5c-0.2-0.2-0.4-0.4-0.4-0.5
			c0-1.1,0-2.1,0-3.3c-0.7,0-1.3,0-2,0c0,1.1,0,2.1,0,3.2c0,0.2-0.3,0.5-0.4,0.7c-0.1-0.2-0.4-0.5-0.4-0.7
			C390.4,298.7,390.4,297.5,390.4,296.3z"/>
		<path class="st0" d="M435.4,296.5c-0.6,0-1.2,0.1-2,0.1c0,0.4,0,0.9,0,1.3c0.4,0.1,0.8,0.1,1.3,0.2c0,0,0,0.1,0,0.1
			c-0.4,0-0.8,0.1-1.3,0.1c0,0.5,0,1,0,1.6c0.7,0.1,1.4,0.1,2.1,0.2c0,0.1,0,0.2,0,0.3c-1,0-1.9,0-3,0c0-1.4,0-2.8,0-4.2
			c1,0,2,0,2.9,0C435.5,296.4,435.5,296.4,435.4,296.5z"/>
		<path class="st0" d="M425.2,300.4c0-1.4,0-2.7,0-4.2c1,0,2,0,3,0c0,0.1,0,0.1,0,0.2c-0.7,0.1-1.4,0.1-2.1,0.2c0,0.4,0,0.8,0,1.3
			c0.4,0.1,0.9,0.2,1.6,0.3c-0.7,0.1-1.2,0.1-1.6,0.2c0,0.5,0,1,0,1.6c0.7,0.1,1.4,0.1,2.1,0.2c0,0.1,0,0.2,0,0.2
			C427.3,300.4,426.3,300.4,425.2,300.4z"/>
		<path class="st0" d="M430.4,300.6c-1.1-1.1-0.1-2.6-0.6-3.9c-0.3-0.1-0.7-0.2-1-0.2c0-0.1,0-0.1,0-0.2c1.1,0,2.2,0,3.3,0
			c0,0.1,0,0.1,0,0.2c-0.4,0.1-0.7,0.1-1.2,0.2c0,1.3,0,2.5,0,3.8C430.7,300.5,430.5,300.6,430.4,300.6z"/>
		<path d="M423.6,300.1c-0.6,0-1.1,0-1.5,0c0-1.1,0-2.2,0-3.4c0.4,0,0.9,0,1.5,0C423.6,297.8,423.6,298.9,423.6,300.1z"/>
	</g>
</g>
</svg>
